<svg xmlns="http://www.w3.org/2000/svg" xmlns:xlink="http://www.w3.org/1999/xlink" width="900" height="250">

    <g id="star">    
        <path d="M 333.547 110.616 L 376.019 223.374 L 505.349 225.806 L 402.268 297.927 L 439.726 412.188 L 333.547 344.003 L 227.368 412.188 L 264.826 297.927 L 161.745 225.806 L 291.075 223.374 Z" data-bx-shape="star 333.547 277.321 180.643 166.705 0.4 5 1@f58dba71" style="fill: none; stroke: rgb(0, 0, 0); stroke-width: 2;"></path>
    </g>
    
    <g id="square">
        <path d="M 150.596 179.275 H 377.188 V 405.867 H 150.596 V 179.275 Z" data-bx-shape="rect 150.596 179.275 226.592 226.592 0 0 0 0 1@02fc28bb" style="fill: none; stroke: rgb(0, 0, 0); stroke-width: 2"></path>
    </g>

    <g id="triange_set">
        <path d="M 403.809 184.228 L 488.935 372.141 L 574.062 184.227 L 654.651 362.125 L 735.305 184.084 L 884.509 513.447 L 723.201 513.447 L 723.266 513.59 L 553.013 513.59 L 553.013 513.591 L 254.605 513.591 L 254.669 513.449 L 99.797 513.449 L 249.001 184.086 L 326.437 355.024 Z" style="fill: none; stroke-width: 2" data-bx-origin="0 Infinity"></path>
    </g>
    
    <g id="arbitrary1" >
        <path d="M 358.79 225.54 L 427.471 273.365 L 369.637 327.132 L 447.776 338.998 L 409.174 452.863 L 371.688 452.863 L 322.828 359.203 L 273.968 452.863 L 238.557 452.863 L 204.321 351.875 L 287.419 325.559 L 218.357 274.69 L 291.344 223.866 L 325.42 304.555 Z" style="fill: none; stroke: rgb(3, 4, 0); stroke-width: 2;" data-bx-origin="0 0"></path>
    </g>
    
</svg>