<svg id="svg_web"  xmlns="http://www.w3.org/2000/svg" xmlns:xlink="http://www.w3.org/1999/xlink" width="900" height="250">
<!--        <g transform="matrix(1, 0, 0, 1, 12.89412447611491, 10.618690745035808)">-->
        <path d="M 703.358 638.264 C 698.938 648.931 692.811 658.221 684.978 666.134 C 677.145 674.054 667.811 680.264 656.978 684.764 C 646.145 689.264 634.311 691.514 621.478 691.514 C 613.645 691.514 606.521 690.807 600.108 689.394 C 593.688 687.974 588.311 686.181 583.978 684.014 L 615.728 503.514 L 638.228 503.514 L 623.978 584.764 C 628.811 575.764 635.021 568.637 642.608 563.384 C 650.188 558.137 658.728 555.514 668.228 555.514 C 674.228 555.514 679.771 556.681 684.858 559.014 C 689.938 561.347 694.355 564.637 698.108 568.884 C 701.855 573.137 704.771 578.181 706.858 584.014 C 708.938 589.847 709.978 596.347 709.978 603.514 C 709.978 616.014 707.771 627.597 703.358 638.264 Z M 662.478 575.014 C 657.978 575.014 653.311 576.137 648.478 578.384 C 643.645 580.637 639.061 584.387 634.728 589.634 C 630.395 594.887 626.395 601.764 622.728 610.264 C 619.061 618.764 616.145 629.264 613.978 641.764 L 608.978 669.514 C 611.645 670.181 614.438 670.681 617.358 671.014 C 620.271 671.347 623.395 671.514 626.728 671.514 C 635.228 671.514 643.188 669.847 650.608 666.514 C 658.021 663.181 664.395 658.597 669.728 652.764 C 675.061 646.931 679.271 640.054 682.358 632.134 C 685.438 624.221 686.978 615.681 686.978 606.514 C 686.978 596.847 684.728 589.181 680.228 583.514 C 675.728 577.847 669.811 575.014 662.478 575.014 Z" data-bx-origin="0 0"></path>
        <path d="M 288.613 690.745 L 269.113 562.495 L 290.863 559.495 L 305.613 665.745 L 352.863 569.995 L 376.613 569.995 L 389.613 665.745 L 442.113 559.495 L 460.613 568.995 L 398.363 690.745 L 373.613 690.745 L 360.613 595.245 L 313.363 690.745 L 288.613 690.745 Z" data-bx-origin="0.5 0.5"></path>
        <path d="M 491.536 688.691 C 484.703 685.944 478.829 682.028 473.916 676.941 C 468.996 671.861 465.163 665.654 462.416 658.321 C 459.663 650.988 458.286 642.738 458.286 633.571 C 458.286 623.238 459.953 613.404 463.286 604.071 C 466.619 594.738 471.329 586.571 477.416 579.571 C 483.496 572.571 490.869 567.028 499.536 562.941 C 508.203 558.861 517.869 556.821 528.536 556.821 C 535.703 556.821 542.119 557.904 547.786 560.071 C 553.453 562.238 558.246 565.071 562.166 568.571 C 566.079 572.071 569.079 576.154 571.166 580.821 C 573.246 585.488 574.286 590.321 574.286 595.321 C 574.286 604.654 572.079 612.238 567.666 618.071 C 563.246 623.904 557.703 628.528 551.036 631.941 C 544.369 635.361 537.036 637.694 529.036 638.941 C 521.036 640.194 513.453 640.821 506.286 640.821 C 501.786 640.821 497.329 640.611 492.916 640.191 C 488.496 639.778 484.619 639.321 481.286 638.821 C 482.619 649.821 486.496 658.238 492.916 664.071 C 499.329 669.904 507.703 672.821 518.036 672.821 C 526.369 672.821 533.786 671.738 540.286 669.571 C 546.786 667.404 552.286 665.238 556.786 663.071 L 558.786 683.071 C 553.786 685.404 547.496 687.611 539.916 689.691 C 532.329 691.778 523.786 692.821 514.286 692.821 C 505.953 692.821 498.369 691.444 491.536 688.691 Z M 526.786 575.821 C 520.953 575.821 515.496 576.944 510.416 579.191 C 505.329 581.444 500.829 584.571 496.916 588.571 C 492.996 592.571 489.746 597.321 487.166 602.821 C 484.579 608.321 482.786 614.321 481.786 620.821 C 485.619 621.654 489.453 622.238 493.286 622.571 C 497.119 622.904 501.453 623.071 506.286 623.071 C 520.453 623.071 531.579 621.111 539.666 617.191 C 547.746 613.278 551.786 606.571 551.786 597.071 C 551.786 591.238 549.496 586.238 544.916 582.071 C 540.329 577.904 534.286 575.821 526.786 575.821 Z" data-bx-origin="0 0"></path>
<!--        </g>-->
    </svg>
