<svg version="1.1" xmlns="http://www.w3.org/2000/svg" xmlns:xlink="http://www.w3.org/1999/xlink" width="400" height="100">
<g fill="none" fill-rule="nonzero" stroke="none" stroke-width="1" stroke-linecap="butt" stroke-linejoin="miter" stroke-miterlimit="10" stroke-dasharray="" stroke-dashoffset="0" font-family="none" font-weight="none" font-size="none" text-anchor="none" style="mix-blend-mode: normal"><path d="M-480,-400c0,-44.18278 35.81722,-80 80,-80c44.18278,0 80,35.81722 80,80c0,44.18278 -35.81722,80 -80,80c-44.18278,0 -80,-35.81722 -80,-80z" fill="none" stroke="#000000"/>
    
    <g id="svg_cgal" fill="#ff0000" stroke="#ff0000"><path d="M201.615,73.58c6.413,1.727 11.707,3.453 15.88,5.18l-18.79,108.44c-1.727,9.933 -4.39,18.033 -7.99,24.3c-3.6,6.26 -7.707,11.227 -12.32,14.9c-4.607,3.673 -9.5,6.193 -14.68,7.56c-5.187,1.367 -10.3,2.05 -15.34,2.05c-9.793,0 -18.11,-1.98 -24.95,-5.94c-6.84,-3.96 -12.42,-8.677 -16.74,-14.15l15.12,-11.23c7.06,9.647 16.35,14.47 27.87,14.47c7.2,0 13.533,-2.663 19,-7.99c5.473,-5.327 9.363,-14.397 11.67,-27.21l3.67,-21.17c-4.173,6.48 -9.213,11.95 -15.12,16.41c-5.907,4.467 -12.603,6.7 -20.09,6.7c-5.18,0 -10.22,-0.973 -15.12,-2.92c-4.893,-1.94 -9.283,-4.783 -13.17,-8.53c-3.893,-3.74 -6.99,-8.42 -9.29,-14.04c-2.307,-5.613 -3.46,-12.02 -3.46,-19.22c0,-10.367 1.8,-19.87 5.4,-28.51c3.6,-8.64 8.57,-16.057 14.91,-22.25c6.333,-6.193 13.857,-10.983 22.57,-14.37c8.713,-3.38 18.18,-5.07 28.4,-5.07c8.64,0 16.163,0.863 22.57,2.59z M127.635,139.03c0,4.893 0.757,9.177 2.27,12.85c1.513,3.673 3.493,6.77 5.94,9.29c2.447,2.52 5.257,4.39 8.43,5.61c3.167,1.227 6.407,1.84 9.72,1.84c4.027,0 7.95,-1.117 11.77,-3.35c3.813,-2.233 7.34,-5.4 10.58,-9.5c3.24,-4.107 6.083,-9.04 8.53,-14.8c2.453,-5.76 4.327,-12.24 5.62,-19.44l5.62,-31.32c-2.74,-0.86 -5.62,-1.543 -8.64,-2.05c-3.027,-0.507 -6.557,-0.76 -10.59,-0.76c-7.2,0 -13.823,1.333 -19.87,4c-6.047,2.667 -11.23,6.303 -15.55,10.91c-4.32,4.607 -7.703,10.043 -10.15,16.31c-2.453,6.26 -3.68,13.063 -3.68,20.41z"/><path d="M223.326,113c3.533,-8.713 8.467,-16.167 14.8,-22.36c6.333,-6.187 13.893,-11.01 22.68,-14.47c8.787,-3.453 18.363,-5.18 28.73,-5.18c8.493,0 15.943,0.863 22.35,2.59c6.413,1.727 11.707,3.453 15.88,5.18l-13.61,76.68c-0.14,0.72 -0.247,1.55 -0.32,2.49c-0.073,0.933 -0.11,1.903 -0.11,2.91c0,4.033 1.153,6.88 3.46,8.54c2.3,1.653 5.323,2.48 9.07,2.48l-6.7,15.12c-7.773,0 -13.713,-1.873 -17.82,-5.62c-4.1,-3.74 -6.15,-9.713 -6.15,-17.92c-4.033,6.907 -9.11,12.81 -15.23,17.71c-6.12,4.893 -13.283,7.34 -21.49,7.34c-5.333,0 -10.447,-1.08 -15.34,-3.24c-4.893,-2.16 -9.25,-5.257 -13.07,-9.29c-3.813,-4.027 -6.837,-8.957 -9.07,-14.79c-2.233,-5.833 -3.35,-12.35 -3.35,-19.55c0,-10.367 1.763,-19.907 5.29,-28.62z M306.386,90.21c-2.74,-0.86 -5.587,-1.543 -8.54,-2.05c-2.947,-0.507 -6.51,-0.76 -10.69,-0.76c-7.487,0 -14.253,1.297 -20.3,3.89c-6.047,2.593 -11.23,6.193 -15.55,10.8c-4.32,4.607 -7.633,10.08 -9.94,16.42c-2.307,6.333 -3.46,13.243 -3.46,20.73c0,5.187 0.757,9.76 2.27,13.72c1.513,3.96 3.493,7.307 5.94,10.04c2.447,2.74 5.22,4.793 8.32,6.16c3.093,1.367 6.297,2.05 9.61,2.05c4.32,0 8.46,-1.15 12.42,-3.45c3.96,-2.307 7.523,-5.583 10.69,-9.83c3.167,-4.247 5.903,-9.287 8.21,-15.12c2.307,-5.833 4.033,-12.207 5.18,-19.12z"/><path d="M99.795,96.26c-3.747,-2.307 -7.673,-4.213 -11.78,-5.72c-4.1,-1.513 -8.67,-2.27 -13.71,-2.27c-6.047,0 -11.52,1.223 -16.42,3.67c-4.893,2.447 -9.07,5.793 -12.53,10.04c-3.453,4.253 -6.117,9.26 -7.99,15.02c-1.873,5.76 -2.81,11.95 -2.81,18.57c0,10.947 2.737,19.623 8.21,26.03c5.473,6.407 12.963,9.61 22.47,9.61c5.467,0 10.29,-0.647 14.47,-1.94c4.173,-1.3 7.99,-2.813 11.45,-4.54l2.37,17.07c-3.6,1.58 -7.957,3.09 -13.07,4.53c-5.107,1.44 -11.26,2.16 -18.46,2.16c-7.06,0 -13.47,-1.187 -19.23,-3.56c-5.76,-2.38 -10.727,-5.8 -14.9,-10.26c-4.18,-4.467 -7.42,-9.76 -9.72,-15.88c-2.307,-6.12 -3.46,-12.997 -3.46,-20.63c0,-9.067 1.403,-17.633 4.21,-25.7c2.813,-8.067 6.883,-15.193 12.21,-21.38c5.327,-6.193 11.733,-11.09 19.22,-14.69c7.487,-3.6 15.983,-5.4 25.49,-5.4c6.767,0 12.743,0.827 17.93,2.48c5.18,1.66 9.86,3.713 14.04,6.16z"/><path d="M353.995,144.95c-0.293,2.013 -0.51,3.74 -0.65,5.18c-0.147,1.44 -0.22,2.737 -0.22,3.89c0,5.04 1.44,8.893 4.32,11.56c2.88,2.66 6.84,3.99 11.88,3.99c2.447,0 4.897,-0.287 7.35,-0.86c2.447,-0.573 4.677,-1.367 6.69,-2.38l1.95,15.77c-2.593,1.3 -5.62,2.343 -9.08,3.13c-3.453,0.793 -7.197,1.19 -11.23,1.19c-4.32,0 -8.387,-0.61 -12.2,-1.83c-3.82,-1.227 -7.133,-3.063 -9.94,-5.51c-2.807,-2.447 -5.037,-5.58 -6.69,-9.4c-1.66,-3.813 -2.49,-8.24 -2.49,-13.28c0,-2.02 0.073,-3.857 0.22,-5.51c0.14,-1.653 0.357,-3.49 0.65,-5.51l21.16,-121.39l19.44,0z"/></g>
    
    <g id="svg_web" fill="#000000" stroke="#000000"><path d="M339.14375,42.02895c-1.326,3.2001 -3.1641,5.9871 -5.514,8.361c-2.3499,2.376 -5.1501,4.239 -8.4,5.589c-3.2499,1.35 -6.8001,2.025 -10.65,2.025c-2.3499,0 -4.4871,-0.2121 -6.411,-0.636c-1.926,-0.426 -3.5391,-0.9639 -4.839,-1.614l9.525,-54.15l6.75,0l-4.275,24.375c1.4499,-2.7 3.3129,-4.8381 5.589,-6.414c2.274,-1.5741 4.836,-2.361 7.686,-2.361c1.8,0 3.4629,0.3501 4.989,1.05c1.524,0.6999 2.8491,1.6869 3.975,2.961c1.1241,1.2759 1.9989,2.7891 2.625,4.539c0.624,1.7499 0.936,3.6999 0.936,5.85c0,3.75 -0.6621,7.2249 -1.986,10.425z M326.87975,23.05395c-1.35,0 -2.7501,0.3369 -4.2,1.011c-1.4499,0.6759 -2.8251,1.8009 -4.125,3.375c-1.2999,1.5759 -2.4999,3.639 -3.6,6.189c-1.1001,2.55 -1.9749,5.7 -2.625,9.45l-1.5,8.325c0.8001,0.2001 1.638,0.3501 2.514,0.45c0.8739,0.0999 1.8111,0.15 2.811,0.15c2.55,0 4.938,-0.5001 7.164,-1.5c2.2239,-0.9999 4.1361,-2.3751 5.736,-4.125c1.5999,-1.7499 2.8629,-3.813 3.789,-6.189c0.924,-2.3739 1.386,-4.9359 1.386,-7.686c0,-2.9001 -0.675,-5.1999 -2.025,-6.9c-1.35,-1.7001 -3.1251,-2.55 -5.325,-2.55z"/><path d="M214.72025,57.77325l-5.85,-38.475l6.525,-0.9l4.425,31.875l14.175,-28.725l7.125,0l3.9,28.725l15.75,-31.875l5.55,2.85l-18.675,36.525l-7.425,0l-3.9,-28.65l-14.175,28.65z"/><path d="M275.59715,57.15705c-2.0499,-0.8241 -3.8121,-1.9989 -5.286,-3.525c-1.476,-1.524 -2.6259,-3.3861 -3.45,-5.586c-0.8259,-2.1999 -1.239,-4.6749 -1.239,-7.425c0,-3.0999 0.5001,-6.0501 1.5,-8.85c0.9999,-2.7999 2.4129,-5.25 4.239,-7.35c1.824,-2.1 4.0359,-3.7629 6.636,-4.989c2.6001,-1.224 5.4999,-1.836 8.7,-1.836c2.1501,0 4.0749,0.3249 5.775,0.975c1.7001,0.6501 3.138,1.5 4.314,2.55c1.1739,1.05 2.0739,2.2749 2.7,3.675c0.624,1.4001 0.936,2.85 0.936,4.35c0,2.7999 -0.6621,5.0751 -1.986,6.825c-1.326,1.7499 -2.9889,3.1371 -4.989,4.161c-2.0001,1.026 -4.2,1.7259 -6.6,2.1c-2.4,0.3759 -4.6749,0.564 -6.825,0.564c-1.35,0 -2.6871,-0.063 -4.011,-0.189c-1.326,-0.1239 -2.4891,-0.261 -3.489,-0.411c0.3999,3.3 1.563,5.8251 3.489,7.575c1.9239,1.7499 4.4361,2.625 7.536,2.625c2.4999,0 4.725,-0.3249 6.675,-0.975c1.95,-0.6501 3.6,-1.2999 4.95,-1.95l0.6,6c-1.5,0.6999 -3.387,1.362 -5.661,1.986c-2.2761,0.6261 -4.839,0.939 -7.689,0.939c-2.4999,0 -4.7751,-0.4131 -6.825,-1.239z M286.17215,23.29605c-1.7499,0 -3.387,0.3369 -4.911,1.011c-1.5261,0.6759 -2.8761,1.614 -4.05,2.814c-1.176,1.2 -2.151,2.625 -2.925,4.275c-0.7761,1.65 -1.314,3.45 -1.614,5.4c1.1499,0.2499 2.3001,0.4251 3.45,0.525c1.1499,0.0999 2.4501,0.15 3.9,0.15c4.2501,0 7.5879,-0.588 10.014,-1.764c2.424,-1.1739 3.636,-3.186 3.636,-6.036c0,-1.7499 -0.687,-3.2499 -2.061,-4.5c-1.3761,-1.2501 -3.189,-1.875 -5.439,-1.875z"/></g>
</g></svg>
